<svg xmlns="http://www.w3.org/2000/svg" viewBox="0 0 1299 655"><g fill="none" fill-rule="evenodd"><path d="M412.635 87.466l48.309-27.84a3.541 3.541 0 002.922 1.527 3.57 3.57 0 002.92-1.527l48.311 27.84-.003 55.7c-1.82.166-3.258 1.677-3.258 3.546 0 .547.124 1.052.335 1.506l-48.305 27.843-51.23-29.53V87.466zm103.094 0l51.232-29.522L615.28 85.79c-.213.455-.345.959-.345 1.496 0 1.872 1.438 3.383 3.262 3.545l.002 55.7-8.524 4.918-42.714 24.612-48.305-27.84c.214-.457.342-.962.342-1.51 0-1.868-1.448-3.379-3.27-3.545v-55.7zm51.548 89.146l18.28-10.54 32.964-18.99 48.315 27.847c-.214.457-.343.959-.343 1.503 0 1.865 1.44 3.38 3.26 3.538v55.708l-51.232 29.523-48.315-27.84c.216-.463.337-.962.337-1.502 0-1.87-1.44-3.393-3.266-3.549v-55.698zm103.11 3.36c1.822-.16 3.266-1.678 3.266-3.54 0-.544-.134-1.05-.347-1.503l48.323-27.847 51.236 29.53v59.066l-25.627 14.764-22.685 13.077c-.657-.92-1.711-1.524-2.924-1.524a3.58 3.58 0 00-2.933 1.524l-48.309-27.84v-55.707zm51.552 89.145a3.572 3.572 0 003.266-3.553 3.545 3.545 0 00-.344-1.496l22.693-13.085 25.624-14.759 51.23 29.528v55.705c-1.829.155-3.268 1.67-3.268 3.538 0 .545.127 1.047.343 1.501l-22.687 13.09-25.618 14.763-51.239-29.536v-55.696zm51.545 85.781l25.628-14.775 22.687-13.075a3.543 3.543 0 002.926 1.529c1.204 0 2.28-.605 2.932-1.529l22.678 13.075 25.622 14.775v55.697a3.573 3.573 0 00-3.27 3.547c0 .54.129 1.04.35 1.506l-48.312 27.842-48.309-27.845c.205-.462.344-.963.34-1.503.004-1.864-1.439-3.388-3.272-3.547v-55.697zm102.785-.549l-25.609-14.766-22.692-13.087a3.56 3.56 0 00.345-1.501c-.002-1.867-1.444-3.383-3.272-3.538v-55.705l48.312-27.848c.643.925 1.7 1.53 2.916 1.527a3.556 3.556 0 002.927-1.527l22.695 13.082 25.61 14.766v55.705a3.556 3.556 0 00-3.262 3.538c0 .545.135 1.047.343 1.506l-48.313 27.848zm.32.549l9.97-5.752 38.33-22.098a3.575 3.575 0 005.866 0l48.3 27.85.001 55.697a3.56 3.56 0 00-3.256 3.547c0 .54.116 1.04.339 1.503l-22.7 13.083-25.622 14.762-48.307-27.845c.22-.462.347-.963.347-1.503 0-1.864-1.438-3.388-3.268-3.547v-55.697zm51.231 148.751l48.394 27.89 2.842 1.64v59.075l-48.305 27.826a3.593 3.593 0 00-5.86.003l-48.302-27.83V536.54c1.83-.162 3.268-1.68 3.268-3.545 0-.54-.128-1.038-.353-1.506l48.316-27.839zm51.554 28.986l-51.24-29.535v-59.066l25.62-14.765 22.697-13.076a3.572 3.572 0 002.923 1.53c1.213 0 2.279-.61 2.924-1.53l48.316 27.84-.003 55.704c-1.83.166-3.267 1.68-3.272 3.547a3.51 3.51 0 00.346 1.498l-48.311 27.853zm-51.554-267.43l-25.616-14.763-22.694-13.082c.22-.455.347-.96.347-1.501a3.57 3.57 0 00-3.268-3.552v-55.695l51.228-29.53 48.322 27.847c-.216.453-.339.96-.342 1.503a3.552 3.552 0 003.26 3.538v55.708l-51.237 29.527zm-51.866 327.049l-51.23 29.522-48.308-27.844c.205-.461.344-.967.344-1.514 0-1.867-1.443-3.38-3.276-3.54v-55.699l51.24-29.53 48.313 27.839c-.221.468-.35.965-.35 1.506 0 1.869 1.443 3.383 3.267 3.545v55.715zm155.286-148.22l51.234-29.527 25.613 14.763 22.695 13.082c-.217.457-.35.967-.35 1.5 0 1.872 1.443 3.384 3.268 3.544l.003 55.704-51.23 29.535-48.311-27.853c.21-.452.34-.957.337-1.498.003-1.867-1.433-3.381-3.256-3.547l-.003-55.703zm102.784-3.764c-1.21 0-2.284.613-2.922 1.532l-22.707-13.077-25.607-14.768v-55.699a3.56 3.56 0 003.261-3.547c0-.542-.127-1.044-.343-1.5l48.318-27.853 25.624 14.765 25.61 14.775v59.059l-48.315 27.845a3.56 3.56 0 00-2.92-1.532zm51.545-85.92l-25.61-14.764-25.622-14.773v-59.06l48.303-27.849a3.57 3.57 0 002.932 1.53 3.59 3.59 0 002.932-1.53l48.301 27.848-.005 55.705a3.55 3.55 0 00-3.257 3.538c0 .545.132 1.047.33 1.501l-48.304 27.853zm.316.548l4.27-2.462 44.042-25.388a3.564 3.564 0 002.924 1.529 3.549 3.549 0 002.924-1.529l48.307 27.85.001 59.055-25.614 14.775-22.694 13.074a3.568 3.568 0 00-2.924-1.532c-1.21 0-2.276.613-2.922 1.532l-48.31-27.849-.004-59.055zm51.233 148.751l49.448 28.497 1.786 1.033.001 59.075-48.311 27.829a3.552 3.552 0 00-2.924-1.514 3.574 3.574 0 00-2.92 1.514l-48.31-27.83-.003-55.714c1.83-.162 3.27-1.676 3.27-3.542 0-.544-.128-1.04-.341-1.51l48.304-27.838zm51.55 28.978l-51.223-29.527v-55.704c1.818-.16 3.26-1.672 3.26-3.544 0-.533-.123-1.043-.343-1.5l22.691-13.083 25.612-14.762 48.316 27.845a3.564 3.564 0 00-.341 1.505c0 1.867 1.436 3.38 3.26 3.539l.004 55.704-51.236 29.527zm-51.55-267.422l-8.8-5.07-39.504-22.775c.213-.462.34-.96.34-1.501a3.57 3.57 0 00-3.266-3.552v-55.695l48.309-27.847a3.568 3.568 0 005.845 0l48.31 27.847.001 55.698a3.556 3.556 0 00-3.265 3.544c0 .539.13 1.044.34 1.506l-48.31 27.845zm103.406 182.19c1.843-.159 3.282-1.671 3.279-3.543a3.487 3.487 0 00-.342-1.5l48.307-27.845 51.242 29.527-.005 55.703c-1.824.166-3.264 1.68-3.264 3.547 0 .54.126 1.046.339 1.498l-48.307 27.845-51.249-29.527v-55.704zm51.562 85.784l6.275-3.613 42.028-24.242a3.564 3.564 0 002.942 1.526 3.526 3.526 0 002.916-1.526l48.313 27.855v55.699c-1.837.16-3.272 1.678-3.272 3.54a3.619 3.619 0 00.347 1.514l-22.693 13.063-25.611 14.781-48.317-27.844c.22-.461.339-.975.339-1.51 0-1.866-1.435-3.383-3.267-3.544v-55.699zm51.245 151.964a3.566 3.566 0 002.916-1.524l48.313 27.842v59.063l-48.313 27.845a3.535 3.535 0 00-2.924-1.522c-1.217 0-2.28.594-2.929 1.537l-48.308-27.86v-59.063l48.303-27.842a3.605 3.605 0 002.942 1.524zm51.54 25.775l-48.313-27.851c.22-.465.345-.961.345-1.511 0-1.869-1.441-3.375-3.262-3.54v-55.703l25.613-14.753 22.693-13.088a3.56 3.56 0 002.924 1.528c1.211 0 2.276-.606 2.926-1.525l3.48 2.01 44.822 25.837.002 55.69c-1.823.169-3.253 1.675-3.253 3.545-.003.549.12 1.045.334 1.51l-48.31 27.851zm-51.543-267.428l-44.663-25.744-6.58-3.79v-55.698c1.837-.162 3.268-1.677 3.268-3.543 0-.546-.116-1.048-.339-1.504l48.317-27.853 51.226 29.54.003 55.697c-1.837.16-3.273 1.683-3.273 3.547.001.54.124 1.04.34 1.503l-48.3 27.845zM412 87.11v59.79l51.866 29.897 48.621-28.026a3.596 3.596 0 002.93 1.524c1.213 0 2.28-.61 2.92-1.524l48.307 27.84v55.696c-1.817.172-3.263 1.682-3.263 3.552a3.58 3.58 0 006.51 2.045l48.63 28.029 51.552-29.709 48.307 27.844a3.547 3.547 0 00-.334 1.495 3.565 3.565 0 003.268 3.554v56.06l51.551 29.721.002 55.697c-1.836.16-3.28 1.678-3.28 3.547a3.575 3.575 0 003.591 3.572 3.55 3.55 0 002.92-1.52l48.627 28.023 48.624-28.024a3.552 3.552 0 002.92 1.521 3.54 3.54 0 002.927-1.52l48.305 27.84.003 59.066-48.308 27.846a3.537 3.537 0 00-2.924-1.523 3.53 3.53 0 00-2.923 1.523l-48.624-28.035-51.86 29.897v56.066c-1.837.165-3.278 1.682-3.278 3.547a3.579 3.579 0 003.591 3.58 3.559 3.559 0 002.918-1.53l48.629 28.023 51.544-29.709 48.313 27.848a3.62 3.62 0 00-.343 1.51 3.579 3.579 0 003.578 3.572 3.573 3.573 0 003.58-3.572c0-.552-.12-1.053-.33-1.51l48.632-28.025v-59.429l48.296-27.855a3.555 3.555 0 002.932 1.53 3.564 3.564 0 002.926-1.53l48.62 28.042 51.864-29.905v-56.065c1.826-.16 3.267-1.672 3.27-3.54 0-.537-.129-1.047-.337-1.504l48.3-27.845 48.32 27.845a3.516 3.516 0 00-.347 1.5 3.554 3.554 0 003.262 3.544l-.005 55.704-48.296 27.846a3.571 3.571 0 00-2.935-1.523 3.58 3.58 0 00-3.58 3.571c0 1.869 1.436 3.383 3.27 3.545l.002 56.069 48.612 28.022c-.198.464-.342.96-.342 1.513a3.588 3.588 0 007.175-.003c0-.55-.13-1.046-.348-1.507l48.632-28.025-.001-59.429 51.227-29.53 51.234 29.53-.003 55.699c-1.818.16-3.26 1.678-3.26 3.543a3.584 3.584 0 003.586 3.58c1.21 0 2.273-.607 2.925-1.526l48.319 27.838v55.699c-1.836.169-3.276 1.675-3.276 3.544 0 .55.126 1.042.339 1.51l-48.63 28.028-.003 59.79.161.087 48.472 27.94a3.57 3.57 0 003.243 5.089 3.577 3.577 0 003.58-3.582 3.5 3.5 0 00-.345-1.507l48.628-28.027v-59.423l48.31-27.842a3.57 3.57 0 002.924 1.519c1.984 0 3.58-1.6 3.58-3.58 0-1.87-1.44-3.377-3.26-3.546v-55.699l-.318-.54-48.312-27.84c.222-.46.341-.979.341-1.515.004-1.862-1.432-3.38-3.265-3.54v-55.699l48.299-27.855a3.595 3.595 0 002.937 1.53 3.543 3.543 0 002.924-1.53l.325-.542c.213-.452.329-.957.329-1.497 0-1.868-1.436-3.382-3.269-3.548v-55.703l-.63-.362v56.068a3.556 3.556 0 00-3.253 3.545 3.3 3.3 0 00.334 1.497l-48.314 27.853-48.31-27.853c.22-.452.345-.957.345-1.498 0-1.873-1.441-3.381-3.267-3.544l-.004-55.71 48.315-27.837a3.528 3.528 0 002.921 1.521 3.563 3.563 0 003.583-3.572c0-1.864-1.445-3.388-3.265-3.547v-56.07l-51.858-29.89-48.63 28.023a3.608 3.608 0 00-2.93-1.523 3.582 3.582 0 00-3.582 3.58c0 1.866 1.445 3.38 3.264 3.543l-.003 55.699-48.299 27.845a3.588 3.588 0 00-2.932-1.532 3.588 3.588 0 00-2.922 1.532l-48.305-27.845v-59.432l-48.627-28.024c.22-.459.344-.96.344-1.506 0-1.87-1.443-3.383-3.27-3.542l-.004-55.7 48.307-27.849a3.57 3.57 0 002.929 1.53 3.584 3.584 0 003.581-3.583c.005-1.862-1.434-3.385-3.26-3.544v-56.062l-48.627-28.027a3.56 3.56 0 00.344-1.51 3.589 3.589 0 00-3.588-3.575 3.59 3.59 0 00-3.587 3.579c0 .542.142 1.052.347 1.506l-48.626 28.03v56.062c-1.827.17-3.261 1.679-3.263 3.549 0 .54.128 1.046.335 1.501l-48.624 28.027.003 59.427-48.312 27.847a3.579 3.579 0 00-2.917-1.526 3.575 3.575 0 00-3.579 3.58c0 1.866 1.437 3.38 3.264 3.543v55.695l-51.232 29.537-48.313-27.842c.216-.475.335-.966.335-1.506a3.564 3.564 0 00-3.25-3.547v-56.07l-48.632-28.029c.214-.454.33-.956.335-1.501 0-1.867-1.44-3.383-3.272-3.538l.005-55.705 51.564-29.713V179.97a3.554 3.554 0 003.25-3.538 3.576 3.576 0 00-3.575-3.576 3.525 3.525 0 00-2.923 1.522l-48.63-28.027-51.867 29.894v56.062c-1.824.169-3.267 1.682-3.267 3.552 0 .534.129 1.04.346 1.501l-48.308 27.845-51.24-29.53v-59.433l-51.856-29.89-48.627 28.026a3.563 3.563 0 00-2.934-1.522 3.57 3.57 0 00-2.924 1.522l-48.313-27.85.003-55.697a3.563 3.563 0 003.266-3.545 3.58 3.58 0 00-3.579-3.574c-1.209 0-2.28.603-2.924 1.53l-48.636-28.035-51.545 29.714-48.313-27.847c.222-.455.35-.96.35-1.5A3.58 3.58 0 00463.866 54a3.58 3.58 0 00-3.582 3.574c0 .54.123 1.045.34 1.5L412 87.111z" opacity=".3" fill="#D9D9D9"/><g opacity=".05"><g opacity=".6" fill-rule="nonzero"><g opacity=".3"><path fill="#D9D9D9" d="M1288.358 535.228v-59.436l51.504-29.726 51.503 29.726v59.436l-51.487 29.726z"/><path d="M1339.878 565.196h-.113l-51.552-29.775v-59.774h.097l51.552-29.774h.112l51.552 29.79v59.678h-.097l-51.551 29.855zm-51.31-30.08l51.31 29.613 51.294-29.614v-59.21l-51.31-29.614-51.294 29.614v59.21z" fill="#FFF"/></g><path fill="#D9D9D9" d="M1288.358 356.904v-59.452l51.504-29.71 51.503 29.71v59.452l-51.503 29.726z"/><path d="M1339.862 386.855h-.097l-51.552-29.79v-59.726h.097l51.552-29.774h.112l51.552 29.774v59.678h-.097l-51.567 29.838zm-51.294-30.064l51.294 29.597 51.31-29.597v-59.21l-51.31-29.662-51.294 29.597v59.275z" fill="#FFF"/><g opacity=".9"><path fill="#D9D9D9" d="M103.796 267.726V208.29l51.504-29.726 51.503 29.726v59.436L155.3 297.452z"/><path d="M155.3 297.677h-.097l-51.616-29.758v-59.758h.096l51.552-29.79h.097l51.552 29.774v59.774h-.097L155.3 297.677zm-51.31-30.064l51.31 29.597 51.294-29.597v-59.275L155.3 178.79l-51.31 29.55v59.274z" fill="#FFF"/></g><g opacity=".3"><path fill="#D9D9D9" d="M309.794 267.726V208.29l51.52-29.726L412.8 208.29v59.436l-51.487 29.726z"/><path d="M361.313 297.677h-.113l-51.551-29.79V208.16h.096l51.552-29.79h.097l51.551 29.774v59.774h-.096l-51.536 29.758zm-51.31-30.064l51.31 29.597 51.294-29.597v-59.275l-51.294-29.613-51.31 29.613v59.275z" fill="#FFF"/></g><g opacity=".3"><path fill="#D9D9D9" d="M155.3 178.564v-59.452l51.503-29.726 51.503 29.726v59.452l-51.503 29.726z"/><path d="M206.803 208.515h-.113l-51.552-29.79v-59.726h.113l51.552-29.774h.097l51.551 29.774v59.678h-.096l-51.552 29.838zm-51.31-30.064l51.31 29.597 51.294-29.597v-59.226l-51.294-29.598-51.31 29.598v59.226z" fill="#FFF"/></g><g opacity=".3"><path fill="#D9D9D9" d="M.79 89.386V29.95L52.292.224l51.503 29.726v59.436l-51.503 29.726z"/><path d="M52.293 119.353h-.097L.58 89.515V29.837h.097L52.293-.002h.096l51.552 29.79v59.727h-.096l-51.552 29.838zM.983 89.273l51.31 29.613 51.294-29.613v-59.21L52.293.465.983 30.063v59.21z" fill="#FFF"/></g><g opacity=".3"><path fill="#D9D9D9" d="M52.293 356.888v-59.436l51.503-29.726 51.504 29.726v59.436l-51.504 29.726z"/><path d="M103.796 386.855h-.113l-51.551-29.774V297.34h.112l51.552-29.774h.097l51.552 29.79v59.678h-.097l-51.552 29.822zm-51.31-30.08l51.31 29.613 51.294-29.613v-59.21l-51.294-29.646-51.31 29.646v59.21z" fill="#FFF"/></g><g opacity=".3"><path fill="#D9D9D9" d="M309.81 89.386l-.016-59.436L361.314.224 412.8 29.95v59.452l-51.487 29.71z"/><path d="M361.313 119.353h-.113L309.65 89.58V29.837h.096L361.297.063h.097l51.551 29.79v59.662h-.096l-51.536 29.838zm-51.31-30.08l51.31 29.613 51.294-29.613v-59.21L361.313.465l-51.31 29.598v59.21z" fill="#FFF"/></g><path fill="#D9D9D9" d="M206.803 267.726V208.29l51.503-29.726 51.488 29.726v59.436l-51.488 29.726z"/><path d="M258.306 297.677h-.112l-51.552-29.79V208.16h.097l51.551-29.79h.097l51.552 29.774v59.774h-.097l-51.536 29.758zm-51.31-30.064l51.31 29.597 51.294-29.597v-59.275l-51.294-29.613-51.31 29.613v59.275z" fill="#FFF"/><path fill="#D9D9D9" d="M52.293 178.564v-59.452l51.503-29.726 51.504 29.726v59.452l-51.504 29.726z"/><path d="M103.796 208.515h-.113l-51.551-29.79v-59.726h.112l51.552-29.823h.097l51.552 29.775v59.677h-.097l-51.552 29.887zm-51.31-30.064l51.31 29.597 51.294-29.597v-59.226l-51.294-29.598-51.31 29.598v59.226z" fill="#FFF"/><g opacity=".9"><path fill="#D9D9D9" d="M258.306 356.888v-59.436l51.488-29.726 51.52 29.726v59.436l-51.504 29.726z"/><path d="M309.81 386.855h-.097l-51.552-29.774V297.34h.097l51.552-29.774h.113l51.551 29.79v59.678h-.096l-51.568 29.822zm-51.31-30.08l51.31 29.613 51.294-29.613v-59.21l-51.31-29.646-51.294 29.597v59.26z" fill="#FFF"/></g><g opacity=".9"><path fill="#D9D9D9" d="M258.306 178.564v-59.452l51.488-29.726 51.52 29.726v59.452l-51.52 29.726z"/><path d="M309.794 208.515h-.097l-51.552-29.79v-59.726h.097l51.552-29.823h.112l51.552 29.775v59.677h-.097l-51.567 29.887zM258.5 178.451l51.294 29.597 51.31-29.597v-59.226l-51.31-29.598-51.294 29.598v59.226z" fill="#FFF"/></g><g opacity=".9"><path fill="#D9D9D9" d="M464.304 178.564L412.8 208.29v59.436l51.504 29.726 51.52-29.726V208.29z"/><path d="M464.304 297.677h-.097l-51.552-29.79V208.16h.097l51.552-29.79h.113l51.551 29.774v59.774h-.096l-51.568 29.758zm-51.294-30.064l51.294 29.597 51.31-29.597v-59.275l-51.31-29.613-51.294 29.613v59.275z" fill="#FFF"/></g><g opacity=".9"><path fill="#D9D9D9" d="M515.823 446.066l-51.52 29.71v59.452l51.52 29.726 51.504-29.726v-59.436z"/><path d="M515.823 565.18h-.112l-51.552-29.791v-59.742h.096l51.552-29.79h.097l51.552 29.774v59.694h-.097l-51.536 29.854zm-51.31-30.065l51.31 29.597 51.246-29.597v-59.21l-51.294-29.614-51.31 29.614.048 59.21z" fill="#FFF"/></g><g opacity=".3"><path fill="#D9D9D9" d="M567.327 356.904l-51.504 29.726v59.436l51.504 29.726 51.503-29.726V386.63z"/><path d="M567.327 476.017h-.097l-51.552-29.774v-59.742h.097l51.552-29.79h.096l51.552 29.774v59.694h-.097l-51.551 29.838zm-51.31-30.064l51.31 29.597 51.294-29.597v-59.21l-51.294-29.614-51.31 29.614v59.21z" fill="#FFF"/></g><g opacity=".3"><path fill="#D9D9D9" d="M361.313 356.888l-51.52 29.726.017 59.452 51.503 29.71 51.487-29.71v-59.452z"/><path d="M361.313 476.017h-.113l-51.551-29.774v-59.742h.096l51.552-29.774h.097l51.551 29.774v59.678h-.096l-51.536 29.838zm-51.31-30.08l51.31 29.613 51.294-29.613v-59.194l-51.294-29.614-51.31 29.614v59.194z" fill="#FFF"/></g><g opacity=".3"><path fill="#D9D9D9" d="M515.823 89.402l-51.52 29.71v59.452l51.52 29.726 51.488-29.726v-59.452z"/><path d="M515.823 208.515h-.112l-51.552-29.79v-59.726h.096l51.552-29.79h.097l51.552 29.774v59.678h-.097l-51.536 29.854zm-51.31-30.064l51.31 29.597 51.246-29.597v-59.21l-51.246-29.614-51.31 29.614v59.21z" fill="#FFF"/></g><path fill="#D9D9D9" d="M515.823 267.726l-51.52 29.726v59.452l51.52 29.726 51.504-29.726-.016-59.452z"/><path d="M515.823 386.855h-.112l-51.552-29.774V297.34h.096l51.552-29.774h.097l51.552 29.79v59.678h-.097l-51.536 29.822zm-51.31-30.08l51.31 29.613 51.246-29.613v-59.21l-51.246-29.646-51.31 29.597v59.26z" fill="#FFF"/><path fill="#D9D9D9" d="M412.817 446.066l-51.504 29.71v59.452l51.504 29.726 51.487-29.726v-59.452z"/><path d="M412.817 565.18h-.113l-51.552-29.791v-59.742h.097l51.551-29.79h.097l51.552 29.774v59.694h-.097l-51.535 29.854zm-51.31-30.065l51.31 29.597 51.294-29.597v-59.21l-51.294-29.614-51.31 29.614v59.21z" fill="#FFF"/><g opacity=".3"><path fill="#D9D9D9" d="M721.82 267.726l-51.486 29.726v59.452l51.487 29.726 51.52-29.726v-59.452z"/><path d="M721.82 386.855h-.096l-51.552-29.774V297.34h.097l51.552-29.774h.113l51.551 29.79v59.678h-.096l-51.568 29.822zm-51.293-30.08l51.294 29.613 51.31-29.613v-59.21l-51.31-29.646-51.294 29.597v59.26z" fill="#FFF"/></g><g opacity=".9"><path fill="#D9D9D9" d="M618.83 267.726l-51.52 29.726.017 59.452 51.503 29.726 51.504-29.726v-59.452z"/><path d="M618.83 386.855h-.113l-51.551-29.774V297.34h.096l51.552-29.774h.097l51.551 29.79v59.678h-.096l-51.536 29.822zm-51.31-30.08l51.31 29.613 51.342-29.613v-59.21l-51.342-29.646-51.31 29.597v59.26z" fill="#FFF"/></g><g opacity=".9"><path fill="#D9D9D9" d="M721.82 446.066l-51.486 29.726v59.436l51.487 29.726 51.52-29.726v-59.436z"/><path d="M721.82 565.196h-.096l-51.552-29.775v-59.774h.097l51.552-29.79h.113l51.551 29.774v59.694h-.096l-51.568 29.87zm-51.293-30.08l51.294 29.613 51.31-29.614v-59.21l-51.31-29.614-51.294 29.614v59.21z" fill="#FFF"/></g><g opacity=".9"><path fill="#D9D9D9" d="M1288.358 297.452v59.452l-51.503 29.726-51.504-29.726v-59.452l51.504-29.726z"/><path d="M1236.855 386.855h-.097l-51.552-29.79v-59.726h.097l51.552-29.774h.113l51.551 29.774v59.678h-.096l-51.568 29.838zm-51.294-30.064l51.294 29.597 51.31-29.597v-59.226l-51.31-29.646-51.294 29.597v59.275z" fill="#FFF"/></g><g opacity=".3"><path fill="#D9D9D9" d="M1082.345 297.452v59.452l-51.504 29.726-51.487-29.726v-59.452l51.487-29.726z"/><path d="M1030.841 386.855h-.096l-51.552-29.774V297.34h.096l51.552-29.774h.113l51.552 29.774v59.678h-.097l-51.568 29.838zm-51.358-30.08l51.294 29.613 51.31-29.597v-59.226l-51.246-29.646-51.358 29.646v59.21z" fill="#FFF"/></g><g opacity=".3"><path fill="#D9D9D9" d="M876.331 297.452v59.452l-51.503 29.726-51.488-29.726v-59.452l51.488-29.726z"/><path d="M824.828 386.855h-.097l-51.552-29.774V297.34h.097l51.552-29.774h.112l51.552 29.79v59.678h-.097l-51.567 29.822zm-51.294-30.08l51.294 29.613 51.31-29.613v-59.21l-51.31-29.646-51.294 29.597v59.26z" fill="#FFF"/></g><g opacity=".3"><path fill="#D9D9D9" d="M1236.855 386.63l.016 59.436-51.52 29.726-51.503-29.726V386.63l51.503-29.726z"/><path d="M1185.367 476.017h-.112l-51.552-29.79v-59.726h.097l51.551-29.79h.097L1237 386.485v59.694h-.097l-51.536 29.838zm-51.23-30.064l51.311 29.597 51.294-29.597v-59.21l-51.375-29.614-51.23 29.614v59.21z" fill="#FFF"/></g><g opacity=".3"><path fill="#D9D9D9" d="M1339.862 208.29v59.452l-51.504 29.71-51.503-29.726V208.29l51.503-29.726z"/><path d="M1288.358 297.693h-.097l-51.551-29.774v-59.742h.096l51.552-29.774h.113l51.552 29.79v59.726h-.097l-51.568 29.774zm-51.294-30.08l51.294 29.613 51.31-29.613v-59.275l-51.31-29.597-51.294 29.597v59.275z" fill="#FFF"/></g><g opacity=".3"><path fill="#D9D9D9" d="M1082.345 119.128v59.436l-51.504 29.726-51.503-29.726v-59.452l51.503-29.71z"/><path d="M1030.841 208.531h-.096l-51.552-29.79v-59.742h.096l51.552-29.79h.113l51.552 29.774v59.678h-.097l-51.568 29.87zm-51.358-30.08l51.294 29.613 51.31-29.613v-59.21l-51.246-29.614-51.358 29.614v59.21z" fill="#FFF"/></g><path fill="#D9D9D9" d="M1185.351 297.452v59.452l-51.503 29.726-51.503-29.726v-59.452l51.503-29.726z"/><path d="M1133.848 386.855h-.097l-51.551-29.79v-59.726h.096l51.552-29.774h.113l51.551 29.774v59.678h-.096l-51.568 29.838zm-51.262-30.064l51.294 29.597 51.31-29.597v-59.226l-51.342-29.646-51.262 29.646v59.226z" fill="#FFF"/><path fill="#D9D9D9" d="M1339.862 386.63v59.436l-51.504 29.726-51.487-29.726-.016-59.436 51.503-29.726z"/><path d="M1288.358 476.017h-.097l-51.551-29.79v-59.726h.096l51.552-29.79h.113l51.552 29.774v59.694h-.097l-51.568 29.838zm-51.294-30.064l51.294 29.597 51.31-29.597v-59.21l-51.31-29.614-51.294 29.614v59.21z" fill="#FFF"/><path fill="#D9D9D9" d="M1185.351 475.792v59.436l-51.503 29.726-51.487-29.726-.016-59.436 51.503-29.726z"/><path d="M1133.848 565.196h-.097L1082.2 535.42v-59.774h.096l51.552-29.774h.113l51.551 29.79v59.678h-.096l-51.568 29.855zm-51.262-30.08l51.294 29.613 51.31-29.614v-59.21l-51.31-29.614-51.294 29.614v59.21z" fill="#FFF"/><g opacity=".3"><path fill="#D9D9D9" d="M824.844 564.954v59.452l-51.504 29.71-51.503-29.71-.016-59.452 51.52-29.726z"/><path d="M773.276 654.39h-.113l-51.552-29.775v-59.774h.097l51.552-29.774h.096l51.552 29.79v59.678h-.097l-51.535 29.855zm-51.246-30.113l51.246 29.614 51.294-29.614v-59.21l-51.294-29.598-51.31 29.598.064 59.21z" fill="#FFF"/></g><g opacity=".9"><path fill="#D9D9D9" d="M1133.848 208.29v59.436l-51.503 29.726-51.504-29.726V208.29l51.504-29.726z"/><path d="M1082.345 297.693h-.097l-51.552-29.774v-59.742h.097l51.552-29.774h.112l51.552 29.79v59.726h-.097l-51.567 29.774zm-51.31-30.08l51.293 29.613 51.31-29.613v-59.275l-51.31-29.597-51.294 29.597v59.275z" fill="#FFF"/></g><g opacity=".9"><path fill="#D9D9D9" d="M1133.848 386.63v59.436l-51.503 29.726-51.504-29.726V386.63l51.504-29.726z"/><path d="M1082.345 476.017h-.097l-51.552-29.79v-59.726h.097l51.552-29.79h.112l51.552 29.774v59.694h-.097l-51.567 29.838zm-51.31-30.064l51.293 29.597 51.31-29.597v-59.21l-51.293-29.614-51.31 29.614v59.21z" fill="#FFF"/></g><g opacity=".9"><path fill="#D9D9D9" d="M927.85 386.63l51.504-29.726v-59.452l-51.504-29.726-51.519 29.726v59.452z"/><path d="M927.931 386.855h-.113l-51.551-29.774V297.34h.096l51.552-29.774h.097l51.551 29.774v59.678h-.096l-51.536 29.838zm-51.39-30.08l51.39 29.613 51.294-29.613v-59.21l-51.294-29.646-51.39 29.646v59.21z" fill="#FFF"/></g><g opacity=".3"><path fill="#D9D9D9" d="M824.828 208.29l51.503-29.726v-59.452l-51.503-29.71-51.488 29.71v59.452z"/><path d="M824.828 208.515h-.097l-51.552-29.79v-59.726h.097l51.552-29.823h.112l51.552 29.775v59.677h-.097l-51.567 29.887zm-51.294-30.064l51.294 29.597 51.31-29.597v-59.21l-51.31-29.614-51.294 29.614v59.21z" fill="#FFF"/></g><g opacity=".3"><path fill="#D9D9D9" d="M876.347 475.792l51.503-29.726V386.63l-51.519-29.726-51.503 29.726.016 59.436z"/><path d="M876.38 476.017h-.113l-51.552-29.79v-59.726h.096l51.552-29.79h.113l51.552 29.774v59.694h-.097l-51.552 29.838zm-51.31-30.064l51.31 29.597 51.293-29.597v-59.21l-51.294-29.614-51.294 29.614-.016 59.21z" fill="#FFF"/></g><g><path fill="#D9D9D9" d="M876.331 297.452l51.52-29.726V208.29l-51.52-29.726-51.503 29.726v59.436z"/><path d="M876.38 297.677h-.097l-51.552-29.79v-59.581h.097l51.551-29.774h.113l51.552 29.79v59.597h-.097l-51.568 29.758zm-51.295-30.064l51.294 29.613 51.31-29.613v-59.275l-51.31-29.533-51.342 29.533.048 59.275z" fill="#FFF"/></g><g><path fill="#D9D9D9" d="M670.334 297.452l51.487-29.726V208.29l-51.487-29.726-51.504 29.726v59.436z"/><path d="M670.334 297.677h-.113l-51.6-29.758v-59.58h.096l51.552-29.775h.097l51.551 29.79v59.581h-.096l-51.487 29.742zm-51.31-30.064l51.31 29.613 51.293-29.613v-59.275l-51.293-29.533-51.31 29.533v59.275z" fill="#FFF"/></g><g><path fill="#D9D9D9" d="M670.334 475.792l51.487-29.726V386.63l-51.487-29.726-51.504 29.726v59.436z"/><path d="M670.334 476.017h-.113l-51.6-29.838V386.5h.096l51.552-29.79h.097l51.551 29.774v59.694h-.096l-51.487 29.838zm-51.31-30.064l51.31 29.597 51.293-29.597v-59.21l-51.293-29.614-51.31 29.614v59.21z" fill="#FFF"/></g><g><path fill="#D9D9D9" d="M824.844 564.954l51.503-29.726v-59.436l-51.503-29.726-51.504 29.726v59.436z"/><path d="M824.828 565.196h-.113l-51.552-29.775v-59.774h.097l51.551-29.79h.097l51.552 29.79v59.678h-.097l-51.535 29.87zm-51.31-30.08l51.31 29.613 51.294-29.614v-59.21l-51.294-29.614-51.31 29.614v59.21z" fill="#FFF"/></g><g opacity=".9"><path fill="#D9D9D9" d="M773.34 297.452l51.488-29.726V208.29l-51.488-29.726-51.52 29.726v59.436z"/><path d="M773.276 297.677h-.113l-51.552-29.79v-59.581h.097l51.552-29.774h.096l51.552 29.79v59.581h-.097l-51.535 29.774zm-51.31-30.064l51.31 29.613 51.294-29.613v-59.275l-51.294-29.533-51.246 29.533-.064 59.275z" fill="#FFF"/></g></g></g></g></svg>