<svg width="25" height="25" viewBox="0 0 25 25" fill="none" xmlns="http://www.w3.org/2000/svg">
<path fill-rule="evenodd" clip-rule="evenodd" d="M18.2908 6.69358C18.3606 6.76325 18.416 6.84601 18.4538 6.93713C18.4916 7.02824 18.5111 7.12593 18.5111 7.22458C18.5111 7.32323 18.4916 7.42091 18.4538 7.51203C18.416 7.60315 18.3606 7.68591 18.2908 7.75558L7.79077 18.2556C7.64994 18.3964 7.45893 18.4755 7.25977 18.4755C7.0606 18.4755 6.8696 18.3964 6.72877 18.2556C6.58794 18.1147 6.50882 17.9237 6.50882 17.7246C6.50882 17.5254 6.58794 17.3344 6.72877 17.1936L17.2288 6.69358C17.2984 6.62373 17.3812 6.56832 17.4723 6.53051C17.5634 6.4927 17.6611 6.47324 17.7598 6.47324C17.8584 6.47324 17.9561 6.4927 18.0472 6.53051C18.1383 6.56832 18.2211 6.62373 18.2908 6.69358Z" fill="#41454D"/>
<path fill-rule="evenodd" clip-rule="evenodd" d="M6.72876 6.69358C6.65892 6.76325 6.6035 6.84601 6.56569 6.93713C6.52788 7.02824 6.50842 7.12593 6.50842 7.22458C6.50842 7.32323 6.52788 7.42091 6.56569 7.51203C6.6035 7.60315 6.65892 7.68591 6.72876 7.75558L17.2288 18.2556C17.3696 18.3964 17.5606 18.4755 17.7598 18.4755C17.9589 18.4755 18.1499 18.3964 18.2908 18.2556C18.4316 18.1147 18.5107 17.9237 18.5107 17.7246C18.5107 17.5254 18.4316 17.3344 18.2908 17.1936L7.79076 6.69358C7.7211 6.62373 7.63833 6.56832 7.54721 6.53051C7.4561 6.4927 7.35841 6.47324 7.25976 6.47324C7.16111 6.47324 7.06343 6.4927 6.97231 6.53051C6.8812 6.56832 6.79843 6.62373 6.72876 6.69358Z" fill="#41454D"/>
</svg>
